# xmcd
#
# Track frame offsets:
#	150
#	15562
#	40969
#	57177
#	79844
#	100665
#	111975
#	129712
#	150787
#	173647
#	193702
#
# Disc length: 3174 seconds
#
# Revision: 1
# Processed by: cddbd v1.4PL0 Copyright (c) Steve Scherf et al.
# Submitted via: audiograbber 1.81.01
#
DISCID=810c640b
DTITLE=Homesick James - The Last Of The Broomdusters
DYEAR=1998
DGENRE=Blues
TTITLE0=Early One Morning
TTITLE1=Long Tall Woman
TTITLE2=Kissin' In The Dark
TTITLE3=Rockin' And Rollin'
TTITLE4=Sugar Mama
TTITLE5=Shake Your Money Maker
TTITLE6=Thought I Heard My Baby Call My Name
TTITLE7=Truck Drivin' Woman
TTITLE8=Married Woman
TTITLE9=Crutch And Cane
TTITLE10=Medley - Woman I'm Lovin' - Two Days Before Christmas
EXTD=
EXTT0=
EXTT1=
EXTT2=
EXTT3=
EXTT4=
EXTT5=
EXTT6=
EXTT7=
EXTT8=
EXTT9=
EXTT10=
PLAYORDER=
